<svg xmlns="http://www.w3.org/2000/svg" width="2400" height="1350" viewBox="0 0 2400 1350" role="img" aria-labelledby="title desc">
  <title id="title">Local founder and contact background</title>
  <desc id="desc">A branded AIssisted Consulting background showing a local small-business counter, contact card, phone, map pin, and practical founder-led help cues in dark navy, gold, coral, violet, and mint lighting.</desc>
  <defs>
    <radialGradient id="goldGlow" cx="18%" cy="20%" r="56%">
      <stop offset="0%" stop-color="#f0d060" stop-opacity="0.30"/>
      <stop offset="46%" stop-color="#8a8bdd" stop-opacity="0.09"/>
      <stop offset="100%" stop-color="#0b1120" stop-opacity="0"/>
    </radialGradient>
    <radialGradient id="coralGlow" cx="88%" cy="82%" r="54%">
      <stop offset="0%" stop-color="#c4456a" stop-opacity="0.48"/>
      <stop offset="42%" stop-color="#3d1d5e" stop-opacity="0.26"/>
      <stop offset="100%" stop-color="#0b1120" stop-opacity="0"/>
    </radialGradient>
    <radialGradient id="mintGlow" cx="78%" cy="24%" r="36%">
      <stop offset="0%" stop-color="#67d9b0" stop-opacity="0.22"/>
      <stop offset="100%" stop-color="#0b1120" stop-opacity="0"/>
    </radialGradient>
    <linearGradient id="room" x1="0" x2="1" y1="0" y2="1">
      <stop offset="0%" stop-color="#151230"/>
      <stop offset="48%" stop-color="#101b34"/>
      <stop offset="100%" stop-color="#0b1120"/>
    </linearGradient>
    <linearGradient id="counter" x1="0" x2="1" y1="0" y2="1">
      <stop offset="0%" stop-color="#26365d"/>
      <stop offset="48%" stop-color="#152344"/>
      <stop offset="100%" stop-color="#090e1d"/>
    </linearGradient>
    <linearGradient id="card" x1="0" x2="1" y1="0" y2="1">
      <stop offset="0%" stop-color="#fff4d4"/>
      <stop offset="100%" stop-color="#d7d1ef"/>
    </linearGradient>
    <linearGradient id="glass" x1="0" x2="1" y1="0" y2="1">
      <stop offset="0%" stop-color="#1c2d56" stop-opacity="0.88"/>
      <stop offset="100%" stop-color="#0b1120" stop-opacity="0.72"/>
    </linearGradient>
    <linearGradient id="phone" x1="0" x2="1" y1="0" y2="1">
      <stop offset="0%" stop-color="#222b44"/>
      <stop offset="100%" stop-color="#070b16"/>
    </linearGradient>
    <filter id="softShadow" x="-30%" y="-30%" width="170%" height="180%">
      <feDropShadow dx="0" dy="34" stdDeviation="30" flood-color="#03050e" flood-opacity="0.48"/>
    </filter>
    <filter id="closeShadow" x="-25%" y="-30%" width="150%" height="170%">
      <feDropShadow dx="0" dy="18" stdDeviation="18" flood-color="#03050e" flood-opacity="0.38"/>
    </filter>
    <filter id="grain">
      <feTurbulence type="fractalNoise" baseFrequency="0.84" numOctaves="2" seed="61" result="noise"/>
      <feColorMatrix in="noise" type="saturate" values="0"/>
      <feComponentTransfer>
        <feFuncA type="table" tableValues="0 0.16"/>
      </feComponentTransfer>
    </filter>
    <pattern id="wallLines" width="130" height="130" patternUnits="userSpaceOnUse">
      <path d="M 130 0 L 0 0 0 130" fill="none" stroke="#efeaff" stroke-opacity="0.035" stroke-width="2"/>
    </pattern>
    <pattern id="counterLines" width="170" height="170" patternUnits="userSpaceOnUse">
      <path d="M 0 0 L 170 170 M 170 0 L 0 170" stroke="#efeaff" stroke-opacity="0.025" stroke-width="2"/>
    </pattern>
  </defs>

  <rect width="2400" height="1350" fill="url(#room)"/>
  <rect width="2400" height="1350" fill="url(#goldGlow)"/>
  <rect width="2400" height="1350" fill="url(#coralGlow)"/>
  <rect width="2400" height="1350" fill="url(#mintGlow)"/>
  <rect width="2400" height="1350" fill="url(#wallLines)" opacity="0.75"/>

  <g opacity="0.26">
    <path d="M-110 292 C 270 122 620 152 966 310 C 1288 458 1558 392 1866 222 C 2104 90 2296 128 2516 294" fill="none" stroke="#8a8bdd" stroke-width="5" stroke-opacity="0.20"/>
    <path d="M-120 1128 C 358 960 710 998 1068 1138 C 1440 1286 1816 1238 2518 1002" fill="none" stroke="#f0d060" stroke-width="4" stroke-opacity="0.17"/>
  </g>

  <g transform="translate(152 178)" filter="url(#softShadow)">
    <rect x="0" y="0" width="688" height="474" rx="48" fill="url(#glass)"/>
    <rect x="42" y="42" width="604" height="390" rx="34" fill="#101b34" opacity="0.78"/>
    <path d="M 86 340 C 172 270 260 278 342 220 C 416 168 474 104 604 86" fill="none" stroke="#f0d060" stroke-width="7" stroke-linecap="round" stroke-opacity="0.48"/>
    <path d="M 112 356 C 234 306 308 318 410 266 C 494 224 538 176 616 154" fill="none" stroke="#67d9b0" stroke-width="5" stroke-linecap="round" stroke-opacity="0.42"/>
    <g transform="translate(438 182)">
      <path d="M 74 0 C 118 0 148 32 148 74 C 148 134 74 210 74 210 C 74 210 0 134 0 74 C 0 32 30 0 74 0 Z" fill="#c4456a" opacity="0.88"/>
      <circle cx="74" cy="74" r="28" fill="#fff4cf"/>
    </g>
    <rect x="86" y="78" width="186" height="24" rx="12" fill="#f0d060"/>
    <rect x="86" y="132" width="304" height="16" rx="8" fill="#efeaff" opacity="0.34"/>
    <rect x="86" y="178" width="248" height="16" rx="8" fill="#efeaff" opacity="0.22"/>
    <text x="86" y="392" fill="#d7d1ef" font-family="Sora, Work Sans, Avenir Next, Segoe UI, sans-serif" font-size="34" font-weight="700">Ocala, Florida</text>
  </g>

  <g transform="translate(688 448)" filter="url(#softShadow)">
    <path d="M -560 420 C -96 238 438 170 1010 222 C 1324 250 1648 344 1880 496 L 1698 840 C 1138 1046 360 1014 -498 802 Z" fill="url(#counter)"/>
    <path d="M -560 420 C -96 238 438 170 1010 222 C 1324 250 1648 344 1880 496 L 1698 840 C 1138 1046 360 1014 -498 802 Z" fill="url(#counterLines)" opacity="0.78"/>
    <path d="M -494 454 C -6 304 440 258 972 300 C 1284 324 1518 392 1754 512" fill="none" stroke="#f0d060" stroke-width="4" stroke-opacity="0.18"/>
  </g>

  <g transform="translate(1010 264)" filter="url(#softShadow)">
    <rect x="0" y="0" width="778" height="610" rx="58" fill="#050815"/>
    <rect x="48" y="58" width="682" height="462" rx="38" fill="#101b34"/>
    <rect x="48" y="58" width="682" height="462" rx="38" fill="url(#wallLines)" opacity="0.52"/>
    <rect x="94" y="102" width="178" height="22" rx="11" fill="#f0d060"/>
    <rect x="94" y="158" width="408" height="15" rx="8" fill="#b7b8ff" opacity="0.52"/>
    <rect x="94" y="204" width="336" height="15" rx="8" fill="#67d9b0" opacity="0.48"/>
    <rect x="94" y="250" width="470" height="15" rx="8" fill="#efeaff" opacity="0.22"/>
    <g transform="translate(476 152)">
      <circle cx="96" cy="96" r="96" fill="#152344"/>
      <circle cx="96" cy="82" r="36" fill="#f0d060" opacity="0.84"/>
      <path d="M 28 172 C 54 124 138 124 164 172" fill="#f0d060" opacity="0.84"/>
    </g>
    <g transform="translate(94 342)">
      <rect x="0" y="0" width="176" height="100" rx="26" fill="#152344"/>
      <rect x="32" y="28" width="76" height="13" rx="7" fill="#e8845a"/>
      <rect x="32" y="62" width="104" height="10" rx="5" fill="#efeaff" opacity="0.28"/>
      <rect x="218" y="0" width="176" height="100" rx="26" fill="#152344"/>
      <rect x="250" y="28" width="82" height="13" rx="7" fill="#67d9b0"/>
      <rect x="250" y="62" width="104" height="10" rx="5" fill="#efeaff" opacity="0.28"/>
      <rect x="436" y="0" width="176" height="100" rx="26" fill="#152344"/>
      <rect x="468" y="28" width="82" height="13" rx="7" fill="#8a8bdd"/>
      <rect x="468" y="62" width="104" height="10" rx="5" fill="#efeaff" opacity="0.28"/>
    </g>
    <path d="M -68 540 L 810 540 C 844 540 864 566 852 596 C 840 624 810 638 768 638 L -86 638 C -128 638 -158 616 -150 584 C -142 556 -112 540 -68 540 Z" fill="#070b16" opacity="0.88"/>
  </g>

  <g transform="translate(322 718) rotate(-8)" filter="url(#closeShadow)">
    <rect x="0" y="0" width="610" height="352" rx="42" fill="url(#card)"/>
    <rect x="46" y="48" width="164" height="22" rx="11" fill="#f0d060"/>
    <text x="46" y="132" fill="#151230" font-family="Sora, Work Sans, Avenir Next, Segoe UI, sans-serif" font-size="58" font-weight="850">AI Guy</text>
    <text x="48" y="184" fill="#3d1d5e" font-family="Sora, Work Sans, Avenir Next, Segoe UI, sans-serif" font-size="32" font-weight="750">AIssisted Consulting</text>
    <rect x="48" y="230" width="306" height="16" rx="8" fill="#151230" opacity="0.34"/>
    <rect x="48" y="274" width="230" height="16" rx="8" fill="#151230" opacity="0.24"/>
    <circle cx="504" cy="122" r="46" fill="#67d9b0" opacity="0.86"/>
    <path d="M 482 122 L 498 140 L 532 96" fill="none" stroke="#0b1120" stroke-width="11" stroke-linecap="round" stroke-linejoin="round"/>
  </g>

  <g transform="translate(1680 720) rotate(9)" filter="url(#closeShadow)">
    <rect x="0" y="0" width="268" height="482" rx="48" fill="url(#phone)"/>
    <rect x="32" y="58" width="204" height="340" rx="34" fill="#101b34"/>
    <circle cx="134" cy="436" r="18" fill="#efeaff" opacity="0.18"/>
    <rect x="64" y="104" width="116" height="18" rx="9" fill="#f0d060"/>
    <rect x="64" y="158" width="140" height="16" rx="8" fill="#67d9b0" opacity="0.82"/>
    <rect x="64" y="210" width="104" height="16" rx="8" fill="#8a8bdd" opacity="0.72"/>
    <rect x="64" y="262" width="128" height="16" rx="8" fill="#e8845a" opacity="0.78"/>
    <path d="M 70 336 C 104 306 160 306 196 336" fill="none" stroke="#67d9b0" stroke-width="9" stroke-linecap="round" opacity="0.62"/>
  </g>

  <g transform="translate(1374 912) rotate(-3)" filter="url(#closeShadow)">
    <rect x="0" y="0" width="470" height="206" rx="36" fill="#101b34"/>
    <rect x="42" y="42" width="124" height="18" rx="9" fill="#c4456a"/>
    <rect x="42" y="90" width="342" height="14" rx="7" fill="#efeaff" opacity="0.32"/>
    <rect x="42" y="128" width="280" height="14" rx="7" fill="#efeaff" opacity="0.22"/>
    <circle cx="390" cy="72" r="34" fill="#f0d060" opacity="0.84"/>
    <path d="M 374 72 L 386 86 L 410 54" fill="none" stroke="#0b1120" stroke-width="9" stroke-linecap="round" stroke-linejoin="round"/>
  </g>

  <g opacity="0.70" font-family="Sora, Work Sans, Avenir Next, Segoe UI, sans-serif">
    <text x="148" y="1128" fill="#fff4cf" font-size="54" font-weight="850">Local, practical, direct</text>
    <text x="148" y="1200" fill="#d7d1ef" font-size="32" font-weight="600">One workflow or one AI question at a time</text>
  </g>

  <g opacity="0.72">
    <circle cx="572" cy="278" r="6" fill="#f0d060"/>
    <circle cx="1974" cy="274" r="6" fill="#67d9b0"/>
    <circle cx="2072" cy="1048" r="5" fill="#e8845a"/>
    <circle cx="1108" cy="168" r="4" fill="#8a8bdd"/>
  </g>

  <rect width="2400" height="1350" filter="url(#grain)" opacity="0.30"/>
  <rect width="2400" height="1350" fill="#0b1120" opacity="0.07"/>
</svg>
