<?xml version="1.0" encoding="utf-8"?>
<!-- Generator: Adobe Illustrator 25.2.1, SVG Export Plug-In . SVG Version: 6.00 Build 0) -->
<svg version="1.1" id="Layer_1" xmlns="http://www.w3.org/2000/svg" xmlns:xlink="http://www.w3.org/1999/xlink" x="0px" y="0px"
 viewBox="0 0 1541.1 1209.9" style="enable-background:new 0 0 1541.1 1209.9;" xml:space="preserve">
<style type="text/css">
 .st0{fill:url(#SVGID_1_);}
 .st1{fill:url(#SVGID_2_);}
 .st2{fill:url(#SVGID_3_);}
 .st3{opacity:0.7;fill:url(#SVGID_4_);}
 .st4{fill:url(#SVGID_5_);}
 .st5{fill:url(#SVGID_6_);}
 .st6{fill:url(#SVGID_7_);}
 .st7{fill:url(#SVGID_8_);}
 .st8{fill:url(#SVGID_9_);}
 .st9{fill:url(#SVGID_10_);}
 .st10{fill:url(#SVGID_11_);}
 .st11{fill:url(#SVGID_12_);}
 .st12{fill:url(#SVGID_13_);}
 .st13{fill:url(#SVGID_14_);}
 .st14{fill:url(#SVGID_15_);}
 .st15{fill:url(#SVGID_16_);}
 .st16{fill:url(#SVGID_17_);}
 .st17{fill:url(#SVGID_18_);}
 .st18{fill:url(#SVGID_19_);}
 .st19{fill:url(#SVGID_20_);}
 .st20{fill:url(#SVGID_21_);}
 .st21{fill:url(#SVGID_22_);}
 .st22{fill:#E4BF55;}
</style>
<g>
 <linearGradient id="SVGID_1_" gradientUnits="userSpaceOnUse" x1="558.8516" y1="342.1807" x2="623.4306" y2="342.1807">
 <stop offset="0" style="stop-color:#7171A3"/>
 <stop offset="1" style="stop-color:#5C5C8E"/>
 </linearGradient>
 <circle class="st0" cx="591.1" cy="342.2" r="32.3"/>
 <linearGradient id="SVGID_2_" gradientUnits="userSpaceOnUse" x1="600.7515" y1="66.685" x2="822.3899" y2="672.4966">
 <stop offset="0" style="stop-color:#797AD1"/>
 <stop offset="1" style="stop-color:#4C469B"/>
 </linearGradient>
 <path class="st1" d="M903.6,713.6c0.4,0,0.8,0,1.1,0c-37.6,14.4-78.4,22.3-121.1,22.3c-187.4,0-339.3-151.9-339.3-339.3
 c0-187.4,151.9-339.3,339.3-339.3c42.7,0,83.5,7.9,121.2,22.3c-0.4,0-0.8,0-1.2,0c-175.1,0-317.1,141.9-317.1,317.1
 S728.4,713.6,903.6,713.6z"/>
 <linearGradient id="SVGID_3_" gradientUnits="userSpaceOnUse" x1="667.1333" y1="248.139" x2="888.7717" y2="853.9506">
 <stop offset="7.198213e-02" style="stop-color:#797AD1"/>
 <stop offset="1" style="stop-color:#4C469B"/>
 </linearGradient>
 <path class="st2" d="M903.6,713.6c0.4,0,0.8,0,1.1,0c-37.6,14.4-78.4,22.3-121.1,22.3c-187.4,0-339.3-151.9-339.3-339.3
 c0-187.4,151.9-339.3,339.3-339.3c42.7,0,83.5,7.9,121.2,22.3c-0.4,0-0.8,0-1.2,0c-1.8,0-3.6,0-5.4,0c-19.5-3.7-39.7-5.6-60.3-5.6
 c-178.2,0-322.6,144.5-322.6,322.6s144.4,322.6,322.6,322.6c20.6,0,40.7-1.9,60.2-5.6C899.9,713.6,901.7,713.6,903.6,713.6z"/>
 <linearGradient id="SVGID_4_" gradientUnits="userSpaceOnUse" x1="639.2966" y1="551.6887" x2="707.9722" y2="739.402">
 <stop offset="7.198213e-02" style="stop-color:#797AD1"/>
 <stop offset="0.5267" style="stop-color:#F2F2F2"/>
 <stop offset="1" style="stop-color:#4C469B"/>
 </linearGradient>
 <path class="st3" d="M570.3,576.9l9.4,12.8l10,12.3l10.5,11.9l11.1,11.3c15.1,14.8,31.5,28.1,49.1,39.7
 c17.6,11.7,36.3,21.6,55.8,29.7c4.9,1.9,9.8,3.9,14.8,5.7c5,1.7,10,3.4,15,5l15.2,4.3l15.4,3.6l-15.5-3.2l-15.4-4
 c-5.1-1.5-10.1-3.2-15.1-4.8c-5-1.8-9.9-3.7-14.9-5.5c-19.7-7.9-38.5-17.9-56.2-29.5c-17.6-11.8-34.2-25.2-49.1-40.2l-10.9-11.5
 l-10.3-12l-9.7-12.6L570.3,576.9z"/>
 <linearGradient id="SVGID_5_" gradientUnits="userSpaceOnUse" x1="442.6186" y1="396.5281" x2="914.4734" y2="396.5281">
 <stop offset="0" style="stop-color:#BFBFFF"/>
 <stop offset="1" style="stop-color:#5C5CAF"/>
 </linearGradient>
 <path class="st4" d="M783.5,737.5c-188,0-340.9-152.9-340.9-340.9S595.6,55.6,783.5,55.6c42,0,82.9,7.5,121.8,22.4l9.2,3.5
 l-9.8-0.4c-0.4,0-0.8,0-1.1,0c-173.9,0-315.5,141.5-315.5,315.5c0,173.9,141.5,315.5,315.5,315.5c0.3,0,0.7,0,1.1,0l9.9-0.4
 l-9.2,3.5C866.4,729.9,825.5,737.5,783.5,737.5z M783.5,58.8c-186.2,0-337.7,151.5-337.7,337.7s151.5,337.7,337.7,337.7
 c38.6,0,76.3-6.4,112.3-19.1c-172.2-4.1-311-145.4-311-318.6c0-173.2,138.8-314.5,311-318.6C859.9,65.2,822.2,58.8,783.5,58.8z"/>
 <linearGradient id="SVGID_6_" gradientUnits="userSpaceOnUse" x1="1076.8944" y1="197.4192" x2="1105.8569" y2="197.4192">
 <stop offset="0" style="stop-color:#E4BF55"/>
 <stop offset="1" style="stop-color:#C49B38"/>
 </linearGradient>
 <polygon class="st5" points="1091.4,183.6 1094.8,194.2 1105.9,194.2 1096.9,200.7 1100.3,211.2 1091.4,204.7 1082.4,211.2 
 1085.8,200.7 1076.9,194.2 1088,194.2 "/>
 <linearGradient id="SVGID_7_" gradientUnits="userSpaceOnUse" x1="627.7402" y1="487.5662" x2="657.6259" y2="487.5662">
 <stop offset="0" style="stop-color:#7171A3"/>
 <stop offset="1" style="stop-color:#5C5C8E"/>
 </linearGradient>
 <circle class="st6" cx="642.7" cy="487.6" r="14.9"/>
 <linearGradient id="SVGID_8_" gradientUnits="userSpaceOnUse" x1="1107.3511" y1="138.7288" x2="1121.8324" y2="138.7288">
 <stop offset="0" style="stop-color:#7171A3"/>
 <stop offset="1" style="stop-color:#5C5C8E"/>
 </linearGradient>
 <circle class="st7" cx="1114.6" cy="138.7" r="7.2"/>
 <linearGradient id="SVGID_9_" gradientUnits="userSpaceOnUse" x1="718.0032" y1="211.1917" x2="757.8478" y2="211.1917">
 <stop offset="0" style="stop-color:#7171A3"/>
 <stop offset="1" style="stop-color:#5C5C8E"/>
 </linearGradient>
 <circle class="st8" cx="737.9" cy="211.2" r="19.9"/>
 <linearGradient id="SVGID_10_" gradientUnits="userSpaceOnUse" x1="981.0439" y1="263.9338" x2="1050.1957" y2="263.9338">
 <stop offset="0" style="stop-color:#E4BF55"/>
 <stop offset="1" style="stop-color:#C49B38"/>
 </linearGradient>
 <polygon class="st9" points="1015.6,231.1 1023.8,256.2 1050.2,256.2 1028.8,271.7 1037,296.8 1015.6,281.3 994.3,296.8 
 1002.4,271.7 981,256.2 1007.5,256.2 "/>
 <g>
 <linearGradient id="SVGID_11_" gradientUnits="userSpaceOnUse" x1="144.1545" y1="813.2889" x2="144.1545" y2="1010.3162">
 <stop offset="0" style="stop-color:#E4BF55"/>
 <stop offset="0.4866" style="stop-color:#C99B38"/>
 <stop offset="0.5267" style="stop-color:#E4BF55"/>
 <stop offset="0.9492" style="stop-color:#C49B38"/>
 </linearGradient>
 <path class="st10" d="M124.4,817.7H165l85.2,197.5h-42.3l-17.2-42H96.5l-17.2,42H38.1L124.4,817.7z M177.7,941l-34.1-83.5
 L109.5,941H177.7z"/>
 <linearGradient id="SVGID_12_" gradientUnits="userSpaceOnUse" x1="293.3858" y1="813.2889" x2="293.3858" y2="1010.3162">
 <stop offset="0" style="stop-color:#E4BF55"/>
 <stop offset="0.4866" style="stop-color:#C49B38"/>
 <stop offset="0.5267" style="stop-color:#E4BF55"/>
 <stop offset="0.9492" style="stop-color:#C49B38"/>
 </linearGradient>
 <path class="st11" d="M273.6,817.7h39.5v197.5h-39.5V817.7z"/>
 <linearGradient id="SVGID_13_" gradientUnits="userSpaceOnUse" x1="421.7416" y1="813.2889" x2="421.7416" y2="1010.3162">
 <stop offset="0" style="stop-color:#BFBFFF"/>
 <stop offset="0.4866" style="stop-color:#8791EE"/>
 <stop offset="0.5053" style="stop-color:#B7B7F9"/>
 <stop offset="0.9545" style="stop-color:#5C5CAF"/>
 </linearGradient>
 <path class="st12" d="M483,863.4c-8.5-5.3-17.7-9.6-27.6-13c-10-3.4-20-5.1-30.2-5.1c-3.6,0-7.2,0.3-11,1
 c-3.8,0.7-7.2,1.8-10.3,3.5c-3.1,1.7-5.7,3.9-7.8,6.8c-2.1,2.8-3.1,6.4-3.1,10.7c0,7.5,2.6,13.4,7.9,17.5
 c5.3,4.1,11.8,7.7,19.7,10.6c7.9,2.9,16.4,5.6,25.5,8.2c9.1,2.5,17.6,6,25.5,10.4c7.9,4.4,14.5,10.2,19.7,17.2
 c5.3,7.1,7.9,16.6,7.9,28.6c0,10.2-2.2,18.9-6.6,26.1c-4.4,7.2-10.2,13.2-17.3,17.8c-7.2,4.6-15.1,8-24,10.2
 c-8.8,2.2-17.7,3.2-26.5,3.2c-14.9,0-29.3-2.7-43.3-8.2c-14-5.5-26.5-13.3-37.4-23.4l14.4-27.4c8.8,8.3,19.1,15.2,30.7,20.7
 c11.7,5.5,23.7,8.3,36.1,8.3c4.1,0,8.4-0.4,12.7-1.1c4.3-0.7,8.3-2.1,11.8-4.1c3.6-2,6.5-4.6,8.9-7.9c2.3-3.3,3.5-7.5,3.5-12.6
 c0-7.7-2.6-13.7-7.9-17.9c-5.3-4.2-11.8-7.8-19.7-10.6c-7.9-2.8-16.5-5.5-25.7-7.9c-9.2-2.4-17.8-5.8-25.7-10
 c-7.9-4.2-14.5-9.9-19.7-16.9c-5.3-7.1-7.9-16.5-7.9-28.4c0-10,2.2-18.4,6.5-25.2c4.3-6.9,9.9-12.5,16.8-16.9
 c6.9-4.4,14.6-7.6,23.1-9.6c8.6-2,17.1-3,25.5-3c12,0,24,1.7,36,5.2c11.9,3.5,23,8.5,33.1,15.1L483,863.4z"/>
 <linearGradient id="SVGID_14_" gradientUnits="userSpaceOnUse" x1="597.2061" y1="813.2889" x2="597.2061" y2="1010.3162">
 <stop offset="0" style="stop-color:#BFBFFF"/>
 <stop offset="0.4866" style="stop-color:#8791EE"/>
 <stop offset="0.5053" style="stop-color:#B7B7F9"/>
 <stop offset="0.9545" style="stop-color:#5C5CAF"/>
 </linearGradient>
 <path class="st13" d="M658.4,863.4c-8.5-5.3-17.7-9.6-27.6-13c-10-3.4-20-5.1-30.2-5.1c-3.6,0-7.2,0.3-11,1
 c-3.8,0.7-7.2,1.8-10.3,3.5c-3.1,1.7-5.7,3.9-7.8,6.8c-2.1,2.8-3.1,6.4-3.1,10.7c0,7.5,2.6,13.4,7.9,17.5
 c5.3,4.1,11.8,7.7,19.7,10.6c7.9,2.9,16.4,5.6,25.5,8.2c9.1,2.5,17.6,6,25.5,10.4c7.9,4.4,14.5,10.2,19.7,17.2
 c5.3,7.1,7.9,16.6,7.9,28.6c0,10.2-2.2,18.9-6.6,26.1c-4.4,7.2-10.2,13.2-17.3,17.8c-7.2,4.6-15.1,8-24,10.2
 c-8.8,2.2-17.7,3.2-26.5,3.2c-14.9,0-29.3-2.7-43.3-8.2c-14-5.5-26.5-13.3-37.4-23.4l14.4-27.4c8.8,8.3,19.1,15.2,30.7,20.7
 c11.7,5.5,23.7,8.3,36.1,8.3c4.1,0,8.4-0.4,12.7-1.1c4.3-0.7,8.3-2.1,11.8-4.1c3.6-2,6.5-4.6,8.9-7.9c2.3-3.3,3.5-7.5,3.5-12.6
 c0-7.7-2.6-13.7-7.9-17.9c-5.3-4.2-11.8-7.8-19.7-10.6c-7.9-2.8-16.5-5.5-25.7-7.9c-9.2-2.4-17.8-5.8-25.7-10
 c-7.9-4.2-14.5-9.9-19.7-16.9c-5.3-7.1-7.9-16.5-7.9-28.4c0-10,2.2-18.4,6.5-25.2c4.3-6.9,9.9-12.5,16.8-16.9
 c6.9-4.4,14.6-7.6,23.1-9.6c8.6-2,17.1-3,25.5-3c12,0,24,1.7,36,5.2c11.9,3.5,23,8.5,33.1,15.1L658.4,863.4z"/>
 <linearGradient id="SVGID_15_" gradientUnits="userSpaceOnUse" x1="730.3559" y1="813.2889" x2="730.3559" y2="1010.3162">
 <stop offset="0" style="stop-color:#BFBFFF"/>
 <stop offset="0.4866" style="stop-color:#8791EE"/>
 <stop offset="0.5053" style="stop-color:#B7B7F9"/>
 <stop offset="0.9545" style="stop-color:#5C5CAF"/>
 </linearGradient>
 <path class="st14" d="M713.7,817.7H747v197.5h-33.3V817.7z"/>
 <linearGradient id="SVGID_16_" gradientUnits="userSpaceOnUse" x1="857.8608" y1="813.2889" x2="857.8608" y2="1010.3162">
 <stop offset="0" style="stop-color:#BFBFFF"/>
 <stop offset="0.4866" style="stop-color:#8791EE"/>
 <stop offset="0.5053" style="stop-color:#B7B7F9"/>
 <stop offset="0.9545" style="stop-color:#5C5CAF"/>
 </linearGradient>
 <path class="st15" d="M919.1,863.4c-8.5-5.3-17.7-9.6-27.6-13c-10-3.4-20-5.1-30.2-5.1c-3.6,0-7.2,0.3-11,1
 c-3.8,0.7-7.2,1.8-10.3,3.5c-3.1,1.7-5.7,3.9-7.8,6.8c-2.1,2.8-3.1,6.4-3.1,10.7c0,7.5,2.6,13.4,7.9,17.5
 c5.3,4.1,11.8,7.7,19.7,10.6c7.9,2.9,16.4,5.6,25.5,8.2c9.1,2.5,17.6,6,25.5,10.4c7.9,4.4,14.5,10.2,19.7,17.2
 c5.3,7.1,7.9,16.6,7.9,28.6c0,10.2-2.2,18.9-6.6,26.1c-4.4,7.2-10.2,13.2-17.4,17.8c-7.1,4.6-15.1,8-24,10.2
 c-8.8,2.2-17.7,3.2-26.5,3.2c-14.9,0-29.3-2.7-43.3-8.2c-14-5.5-26.5-13.3-37.4-23.4l14.4-27.4c8.8,8.3,19.1,15.2,30.7,20.7
 c11.7,5.5,23.7,8.3,36.1,8.3c4.1,0,8.4-0.4,12.7-1.1c4.3-0.7,8.3-2.1,11.8-4.1c3.6-2,6.5-4.6,8.9-7.9c2.4-3.3,3.5-7.5,3.5-12.6
 c0-7.7-2.6-13.7-7.9-17.9c-5.3-4.2-11.8-7.8-19.7-10.6c-7.9-2.8-16.5-5.5-25.7-7.9c-9.2-2.4-17.8-5.8-25.7-10
 c-7.9-4.2-14.5-9.9-19.7-16.9c-5.3-7.1-7.9-16.5-7.9-28.4c0-10,2.2-18.4,6.5-25.2c4.3-6.9,9.9-12.5,16.8-16.9
 c6.9-4.4,14.6-7.6,23.1-9.6c8.6-2,17.1-3,25.5-3c12,0,24,1.7,36,5.2c11.9,3.5,23,8.5,33.1,15.1L919.1,863.4z"/>
 <linearGradient id="SVGID_17_" gradientUnits="userSpaceOnUse" x1="1027.2623" y1="813.2889" x2="1027.2623" y2="1010.3162">
 <stop offset="0" style="stop-color:#BFBFFF"/>
 <stop offset="0.4866" style="stop-color:#8791EE"/>
 <stop offset="0.5053" style="stop-color:#B7B7F9"/>
 <stop offset="0.9545" style="stop-color:#5C5CAF"/>
 </linearGradient>
 <path class="st16" d="M948.1,817.7h158.3v28.5h-62.6v169h-33.3v-169h-62.3V817.7z"/>
 <linearGradient id="SVGID_18_" gradientUnits="userSpaceOnUse" x1="1207.1013" y1="813.2889" x2="1207.1013" y2="1010.3162">
 <stop offset="0" style="stop-color:#BFBFFF"/>
 <stop offset="0.4866" style="stop-color:#8791EE"/>
 <stop offset="0.5053" style="stop-color:#B7B7F9"/>
 <stop offset="0.9545" style="stop-color:#5C5CAF"/>
 </linearGradient>
 <path class="st17" d="M1134.9,817.7h141.1v28.5h-107.8v55.6h96.5V930h-96.5v56.7h111.1v28.5h-144.4V817.7z"/>
 <linearGradient id="SVGID_19_" gradientUnits="userSpaceOnUse" x1="1411.48" y1="813.2889" x2="1411.48" y2="1010.3162">
 <stop offset="0" style="stop-color:#BFBFFF"/>
 <stop offset="0.4866" style="stop-color:#8791EE"/>
 <stop offset="0.5053" style="stop-color:#B7B7F9"/>
 <stop offset="0.9545" style="stop-color:#5C5CAF"/>
 </linearGradient>
 <path class="st18" d="M1400.9,817.7c14.9,0,28.5,2.5,41,7.5c12.5,5,23.3,11.8,32.3,20.6c9,8.7,16.1,19.1,21.2,31.2
 c5.1,12,7.6,25.2,7.6,39.5c0,14.3-2.5,27.5-7.6,39.5c-5.1,12-12.2,22.4-21.4,31.2c-9.2,8.7-20.1,15.6-32.6,20.6
 c-12.5,5-26.3,7.5-41.3,7.5h-80.1V817.7H1400.9z M1401.7,986.7c9.6,0,18.5-1.7,26.8-5.2c8.3-3.5,15.4-8.3,21.4-14.5
 c6-6.2,10.8-13.6,14.2-22.1c3.5-8.6,5.2-17.9,5.2-28.1c0-10.3-1.8-19.8-5.4-28.5c-3.6-8.6-8.5-16.1-14.7-22.3
 c-6.2-6.2-13.5-11-21.9-14.5c-8.4-3.5-17.4-5.2-27.2-5.2h-47.1v140.5H1401.7z"/>
 </g>
 <g>
 <linearGradient id="SVGID_20_" gradientUnits="userSpaceOnUse" x1="687.4763" y1="153.6321" x2="847.5485" y2="503.3282">
 <stop offset="0" style="stop-color:#E4BF55"/>
 <stop offset="1" style="stop-color:#C49B38"/>
 </linearGradient>
 <path class="st19" d="M1091.3,373.3c-3.2,0-6.2,0.6-8.9,1.8L920.8,100.5c6.3-4.8,10.4-12.5,10.4-21c0-14.6-11.9-26.5-26.5-26.5
 c-14.6,0-26.5,11.9-26.5,26.5c0,10.2,5.8,19.1,14.3,23.5l-69.3,184.4c-11.8-4.1-24.4-6.3-37.6-6.3c-39.4,0-74.3,19.9-95.1,50.1
 l-113.6-73.5c0.5-1.5,0.8-3.1,0.8-4.8c0-8.2-6.7-15-15-15c-8.2,0-14.9,6.7-14.9,15c0,5.1,2.6,9.6,6.5,12.3l-50.9,116.6
 c-0.9-0.2-1.9-0.3-2.9-0.3c-8.2,0-14.9,6.7-14.9,14.9c0,8.3,6.7,15,14.9,15c1,0,2-0.1,2.9-0.3l50.9,116.6
 c-3.9,2.7-6.5,7.2-6.5,12.3c0,8.3,6.7,15,14.9,15c8.3,0,15-6.7,15-15c0-1.7-0.3-3.3-0.8-4.8l113.7-73.5
 c20.8,30.2,55.7,50.1,95.1,50.1c13.2,0,25.8-2.2,37.6-6.3l69.4,184.4c-8.5,4.4-14.3,13.3-14.3,23.5c0,14.6,11.9,26.5,26.5,26.5
 c14.7,0,26.5-11.9,26.5-26.5c0-8.6-4.1-16.2-10.4-21L1082.4,418c2.7,1.1,5.8,1.8,8.9,1.8c12.8,0,23.3-10.4,23.3-23.3
 C1114.6,383.7,1104.2,373.3,1091.3,373.3z M573.4,529.8c-2.7-2.9-6.6-4.7-10.8-4.7c-0.8,0-1.7,0.1-2.5,0.2l-51-116.8
 c3.7-2.7,6.2-7.1,6.2-12.1c0-5-2.4-9.4-6.2-12.1l51-116.8c0.8,0.1,1.6,0.2,2.5,0.2c4.3,0,8.1-1.8,10.8-4.7l113.5,73.4
 c-10.7,17.5-16.8,38-16.8,59.9c0,21.9,6.2,42.5,16.8,59.9L573.4,529.8z M679.5,396.5c0-58.4,47.5-106,106-106
 c58.4,0,106,47.5,106,106c0,58.4-47.5,106-106,106C727.1,502.5,679.5,455,679.5,396.5z M1076.9,414.7L915.3,689.2
 c-3.2-1.4-6.8-2.2-10.6-2.2c-2.2,0-4.2,0.3-6.3,0.8l-69.4-184.4c42.1-17.2,71.8-58.6,71.8-106.9c0-48.2-29.7-89.6-71.8-106.9
 l69.3-184.4c2,0.5,4.1,0.8,6.3,0.8c3.8,0,7.3-0.8,10.6-2.2l161.6,274.5c-5.4,4.3-8.8,10.8-8.8,18.2
 C1068.1,403.9,1071.5,410.5,1076.9,414.7z"/>
 <linearGradient id="SVGID_21_" gradientUnits="userSpaceOnUse" x1="654.9057" y1="168.5412" x2="814.9778" y2="518.2372">
 <stop offset="0" style="stop-color:#E4BF55"/>
 <stop offset="1" style="stop-color:#C49B38"/>
 </linearGradient>
 <polygon class="st20" points="750.2,408.3 776.6,408.3 763.5,374.1 "/>
 <linearGradient id="SVGID_22_" gradientUnits="userSpaceOnUse" x1="676.5864" y1="158.6169" x2="836.6586" y2="508.313">
 <stop offset="0" style="stop-color:#E4BF55"/>
 <stop offset="1" style="stop-color:#C49B38"/>
 </linearGradient>
 <path class="st21" d="M785.5,300.5c-53.1,0-96.1,43-96.1,96.1s43,96.1,96.1,96.1s96.1-43,96.1-96.1S838.5,300.5,785.5,300.5z
 M790.3,444.5l-6.4-17h-41.1l-6.6,17h-26.3l41.2-95.9h26.2l40.2,95.9H790.3z M851.4,444.5H826v-95.9h25.5V444.5z"/>
 </g>
 <g>
 <path class="st22" d="M256.1,1096.5c-2.9-3.2-6.4-5.8-10.3-7.6c-4-1.8-8-2.8-12.2-2.8c-4,0-7.8,0.8-11.3,2.3
 c-3.5,1.5-6.6,3.6-9.2,6.3c-2.6,2.7-4.6,5.8-6.1,9.3s-2.2,7.4-2.2,11.6c0,4.1,0.7,7.9,2.2,11.5c1.5,3.6,3.5,6.7,6.1,9.4
 c2.6,2.7,5.6,4.7,9.2,6.3c3.5,1.5,7.3,2.3,11.3,2.3c4.1,0,8.1-0.9,12-2.6c3.9-1.7,7.4-4.1,10.5-7.1l8.1,8.4
 c-4.2,4.1-9,7.3-14.4,9.7c-5.5,2.4-11.1,3.6-16.8,3.6c-5.9,0-11.4-1.1-16.5-3.2c-5.1-2.2-9.6-5.1-13.3-8.8
 c-3.8-3.7-6.7-8.1-8.9-13.1c-2.2-5-3.2-10.4-3.2-16.2c0-5.8,1.1-11.1,3.3-16.1c2.2-5,5.2-9.3,9-13s8.3-6.6,13.4-8.7
 c5.2-2.1,10.7-3.2,16.7-3.2c5.8,0,11.3,1.1,16.7,3.3c5.4,2.2,10,5.2,14,9.2L256.1,1096.5z"/>
 <path class="st22" d="M358.5,1074.7c6,0,11.6,1.1,16.8,3.2c5.2,2.1,9.8,5,13.6,8.7c3.8,3.7,6.9,8,9.1,13c2.2,5,3.3,10.4,3.3,16.1
 c0,5.8-1.1,11.2-3.3,16.2c-2.2,5-5.2,9.4-9.1,13.1c-3.8,3.7-8.4,6.7-13.6,8.8c-5.2,2.2-10.8,3.2-16.8,3.2s-11.6-1.1-16.8-3.2
 c-5.2-2.2-9.8-5.1-13.6-8.8c-3.8-3.7-6.9-8.1-9.1-13.1c-2.2-5-3.3-10.4-3.3-16.2c0-5.8,1.1-11.1,3.3-16.1c2.2-5,5.2-9.3,9.1-13
 c3.8-3.7,8.4-6.6,13.6-8.7C346.9,1075.7,352.5,1074.7,358.5,1074.7z M358.6,1086.2c-4,0-7.7,0.8-11.2,2.3
 c-3.5,1.5-6.6,3.6-9.2,6.3c-2.7,2.7-4.7,5.8-6.3,9.3c-1.5,3.6-2.3,7.4-2.3,11.6c0,4.2,0.8,8,2.3,11.6c1.5,3.6,3.6,6.8,6.3,9.5
 c2.7,2.7,5.7,4.9,9.3,6.4c3.5,1.5,7.3,2.3,11.2,2.3s7.6-0.8,11.1-2.3c3.5-1.5,6.6-3.7,9.2-6.4c2.6-2.7,4.7-5.9,6.2-9.5
 c1.5-3.6,2.2-7.5,2.2-11.6c0-4.2-0.7-8-2.2-11.6c-1.5-3.6-3.6-6.7-6.2-9.3c-2.6-2.7-5.7-4.7-9.2-6.3
 C366.3,1087,362.6,1086.2,358.6,1086.2z"/>
 <path class="st22" d="M462,1075.5h13.4l43.3,59.3v-59.3H532v80.7h-13.4l-43-58.9v58.9H462V1075.5z"/>
 <path class="st22" d="M648.6,1094.2c-3.5-2.2-7.2-3.9-11.3-5.3c-4.1-1.4-8.2-2.1-12.3-2.1c-1.5,0-3,0.1-4.5,0.4
 c-1.5,0.3-2.9,0.7-4.2,1.4c-1.3,0.7-2.3,1.6-3.2,2.8c-0.8,1.2-1.3,2.6-1.3,4.4c0,3.1,1.1,5.5,3.2,7.2c2.2,1.7,4.8,3.1,8.1,4.3
 c3.2,1.2,6.7,2.3,10.4,3.3c3.7,1,7.2,2.5,10.4,4.3c3.2,1.8,5.9,4.2,8.1,7c2.2,2.9,3.2,6.8,3.2,11.7c0,4.2-0.9,7.7-2.7,10.7
 c-1.8,3-4.2,5.4-7.1,7.3c-2.9,1.9-6.2,3.3-9.8,4.2c-3.6,0.9-7.2,1.3-10.8,1.3c-6.1,0-12-1.1-17.7-3.3c-5.7-2.2-10.8-5.4-15.3-9.6
 l5.9-11.2c3.6,3.4,7.8,6.2,12.6,8.5c4.8,2.3,9.7,3.4,14.8,3.4c1.7,0,3.4-0.2,5.2-0.5c1.8-0.3,3.4-0.9,4.8-1.7
 c1.5-0.8,2.7-1.9,3.6-3.2c1-1.3,1.4-3.1,1.4-5.1c0-3.2-1.1-5.6-3.2-7.3c-2.2-1.7-4.8-3.2-8.1-4.3c-3.2-1.2-6.7-2.2-10.5-3.2
 c-3.8-1-7.3-2.4-10.5-4.1c-3.2-1.7-5.9-4-8.1-6.9c-2.2-2.9-3.2-6.7-3.2-11.6c0-4.1,0.9-7.5,2.7-10.3c1.8-2.8,4.1-5.1,6.9-6.9
 c2.8-1.8,6-3.1,9.5-3.9c3.5-0.8,7-1.2,10.4-1.2c4.9,0,9.8,0.7,14.7,2.1c4.9,1.4,9.4,3.5,13.6,6.2L648.6,1094.2z"/>
 <path class="st22" d="M729.3,1123.1c0,7.1,1.9,12.6,5.8,16.6c3.8,4,9,5.9,15.6,5.9c6.5,0,11.7-2,15.4-5.9
 c3.7-3.9,5.6-9.5,5.6-16.6v-47.6h13.6v47.6c0,5.3-0.8,10.1-2.4,14.2c-1.6,4.2-3.9,7.7-6.9,10.7c-3,2.9-6.6,5.2-10.9,6.7
 c-4.3,1.6-9.1,2.4-14.5,2.4c-5.4,0-10.2-0.8-14.6-2.4c-4.3-1.6-8-3.8-11-6.7c-3-2.9-5.3-6.5-6.9-10.7c-1.6-4.2-2.4-8.9-2.4-14.2
 v-47.6h13.6V1123.1z"/>
 <path class="st22" d="M851,1075.5h13.6v69.1h34.9v11.6H851V1075.5z"/>
 <path class="st22" d="M941.7,1075.5h64.7v11.6h-25.6v69.1h-13.6v-69.1h-25.5V1075.5z"/>
 <path class="st22" d="M1064.1,1075.5h13.6v80.7h-13.6V1075.5z"/>
 <path class="st22" d="M1145.1,1075.5h13.4l43.3,59.3v-59.3h13.4v80.7h-13.4l-43-58.9v58.9h-13.6V1075.5z"/>
 <path class="st22" d="M1342.4,1095.4c-3.2-2.9-6.8-5.2-10.8-6.9c-4.1-1.7-8.2-2.5-12.5-2.5c-4.2,0-8,0.8-11.6,2.3
 c-3.6,1.5-6.7,3.7-9.3,6.3c-2.7,2.7-4.7,5.8-6.2,9.4c-1.5,3.6-2.2,7.4-2.2,11.6c0,4.2,0.8,8.1,2.3,11.7c1.5,3.7,3.6,6.8,6.3,9.5
 c2.7,2.7,5.8,4.8,9.3,6.3c3.6,1.5,7.4,2.3,11.6,2.3c2.8,0,5.7-0.4,8.7-1.3c3-0.8,5.8-2,8.5-3.6v-18.6h-24.1v-11.5h37.4v35.9
 c-2.1,1.6-4.3,3.1-6.8,4.4c-2.5,1.3-5.1,2.4-7.8,3.3c-2.7,0.9-5.5,1.6-8.4,2.1c-2.8,0.5-5.7,0.7-8.4,0.7c-6,0-11.6-1.1-16.7-3.2
 c-5.2-2.2-9.6-5.1-13.4-8.8c-3.8-3.7-6.8-8.1-9-13.1c-2.2-5-3.3-10.4-3.3-16.2c0-5.8,1.1-11.1,3.3-16.1c2.2-5,5.3-9.3,9.1-13
 s8.4-6.6,13.7-8.7c5.3-2.1,11-3.2,17.1-3.2c5.8,0,11.4,1,16.8,3.1c5.5,2,10.2,4.8,14.2,8.4L1342.4,1095.4z"/>
 </g>
</g>
</svg>
